<svg width="541" height="97" viewBox="0 0 541 97" fill="none" xmlns="http://www.w3.org/2000/svg">
<mask id="path-1-outside-1_309_6" maskUnits="userSpaceOnUse" x="0" y="0" width="541" height="97" fill="black">
<rect fill="white" width="541" height="97"/>
<path d="M43.875 3V94H22.4375V3H43.875ZM65.9375 3V19.9375H1V3H65.9375ZM146.738 22.125L129.8 94H106.8L134.863 3H149.238L146.738 22.125ZM159.988 94L143.05 22.125L140.238 3H154.863L182.988 94H159.988ZM160.675 60.0625V77H121.238V60.0625H160.675ZM275.663 63.1875H297.038C297.079 70.0208 295.746 75.8542 293.038 80.6875C290.371 85.4792 286.6 89.1042 281.725 91.5625C276.85 94.0208 271.142 95.25 264.6 95.25C259.308 95.25 254.621 94.3333 250.538 92.5C246.454 90.6667 243.017 88 240.225 84.5C237.433 81 235.329 76.7708 233.913 71.8125C232.496 66.8125 231.788 61.1458 231.788 54.8125V42.125C231.788 35.8333 232.538 30.1875 234.038 25.1875C235.579 20.1875 237.746 15.9375 240.538 12.4375C243.371 8.9375 246.788 6.27083 250.788 4.4375C254.829 2.60417 259.329 1.6875 264.288 1.6875C271.246 1.6875 277.121 3 281.913 5.625C286.746 8.20833 290.454 11.9583 293.038 16.875C295.621 21.75 296.996 27.6042 297.163 34.4375H275.788C275.996 30.4792 275.746 27.375 275.038 25.125C274.329 22.8333 273.079 21.2292 271.288 20.3125C269.538 19.3542 267.204 18.875 264.288 18.875C262.288 18.875 260.6 19.2708 259.225 20.0625C257.85 20.8542 256.746 22.1667 255.913 24C255.079 25.7917 254.475 28.1667 254.1 31.125C253.725 34.0833 253.538 37.7083 253.538 42V54.8125C253.538 59.1875 253.683 62.8542 253.975 65.8125C254.267 68.7708 254.808 71.1667 255.6 73C256.433 74.7917 257.558 76.0833 258.975 76.875C260.433 77.6667 262.308 78.0625 264.6 78.0625C267.017 78.0625 269.079 77.6667 270.788 76.875C272.496 76.0417 273.788 74.5625 274.663 72.4375C275.538 70.2708 275.871 67.1875 275.663 63.1875ZM372.525 3V94H351.212V3H372.525ZM415.775 3L389.712 58H368.962L366.275 38.1875H378.65L389.962 3H415.775ZM393.275 94L378.775 54.1875L394.4 39.5L418.4 94H393.275ZM502.888 22.125L485.95 94H462.95L491.013 3H505.388L502.888 22.125ZM516.138 94L499.2 22.125L496.388 3H511.013L539.138 94H516.138ZM516.825 60.0625V77H477.388V60.0625H516.825Z"/>
</mask>
<path d="M43.875 3H44.875V2H43.875V3ZM43.875 94V95H44.875V94H43.875ZM22.4375 94H21.4375V95H22.4375V94ZM22.4375 3V2H21.4375V3H22.4375ZM65.9375 3H66.9375V2H65.9375V3ZM65.9375 19.9375V20.9375H66.9375V19.9375H65.9375ZM1 19.9375H0V20.9375H1V19.9375ZM1 3V2H0V3H1ZM43.875 3H42.875V94H43.875H44.875V3H43.875ZM43.875 94V93H22.4375V94V95H43.875V94ZM22.4375 94H23.4375V3H22.4375H21.4375V94H22.4375ZM22.4375 3V4H43.875V3V2H22.4375V3ZM65.9375 3H64.9375V19.9375H65.9375H66.9375V3H65.9375ZM65.9375 19.9375V18.9375H1V19.9375V20.9375H65.9375V19.9375ZM1 19.9375H2V3H1H0V19.9375H1ZM1 3V4H65.9375V3V2H1V3ZM146.738 22.125L147.711 22.3544L147.722 22.305L147.729 22.2546L146.738 22.125ZM129.8 94V95H130.592L130.773 94.2294L129.8 94ZM106.8 94L105.844 93.7053L105.445 95H106.8V94ZM134.863 3V2H134.124L133.907 2.70531L134.863 3ZM149.238 3L150.229 3.12962L150.377 2H149.238V3ZM159.988 94L159.014 94.2294L159.196 95H159.988V94ZM143.05 22.125L142.061 22.2705L142.067 22.3128L142.077 22.3544L143.05 22.125ZM140.238 3V2H139.08L139.248 3.14549L140.238 3ZM154.863 3L155.818 2.70472L155.6 2H154.863V3ZM182.988 94V95H184.343L183.943 93.7047L182.988 94ZM160.675 60.0625H161.675V59.0625H160.675V60.0625ZM160.675 77V78H161.675V77H160.675ZM121.238 77H120.238V78H121.238V77ZM121.238 60.0625V59.0625H120.238V60.0625H121.238ZM146.738 22.125L145.764 21.8956L128.827 93.7706L129.8 94L130.773 94.2294L147.711 22.3544L146.738 22.125ZM129.8 94V93H106.8V94V95H129.8V94ZM106.8 94L107.756 94.2947L135.818 3.29469L134.863 3L133.907 2.70531L105.844 93.7053L106.8 94ZM134.863 3V4H149.238V3V2H134.863V3ZM149.238 3L148.246 2.87038L145.746 21.9954L146.738 22.125L147.729 22.2546L150.229 3.12962L149.238 3ZM159.988 94L160.961 93.7706L144.023 21.8956L143.05 22.125L142.077 22.3544L159.014 94.2294L159.988 94ZM143.05 22.125L144.039 21.9795L141.227 2.85451L140.238 3L139.248 3.14549L142.061 22.2705L143.05 22.125ZM140.238 3V4H154.863V3V2H140.238V3ZM154.863 3L153.907 3.29528L182.032 94.2953L182.988 94L183.943 93.7047L155.818 2.70472L154.863 3ZM182.988 94V93H159.988V94V95H182.988V94ZM160.675 60.0625H159.675V77H160.675H161.675V60.0625H160.675ZM160.675 77V76H121.238V77V78H160.675V77ZM121.238 77H122.238V60.0625H121.238H120.238V77H121.238ZM121.238 60.0625V61.0625H160.675V60.0625V59.0625H121.238V60.0625ZM275.663 63.1875V62.1875H274.609L274.664 63.2395L275.663 63.1875ZM297.038 63.1875L298.037 63.1814L298.031 62.1875H297.038V63.1875ZM293.038 80.6875L292.165 80.1987L292.164 80.2012L293.038 80.6875ZM233.913 71.8125L232.95 72.0851L232.951 72.0872L233.913 71.8125ZM234.038 25.1875L233.082 24.8928L233.08 24.9002L234.038 25.1875ZM240.538 12.4375L239.76 11.8083L239.756 11.8139L240.538 12.4375ZM250.788 4.4375L250.374 3.52681L250.371 3.52844L250.788 4.4375ZM281.913 5.625L281.432 6.50207L281.441 6.50693L281.913 5.625ZM293.038 16.875L292.152 17.3401L292.154 17.3432L293.038 16.875ZM297.163 34.4375V35.4375H298.187L298.162 34.4131L297.163 34.4375ZM275.788 34.4375L274.789 34.3849L274.733 35.4375H275.788V34.4375ZM275.038 25.125L274.082 25.4203L274.084 25.4253L275.038 25.125ZM271.288 20.3125L270.807 21.1896L270.82 21.1963L270.832 21.2027L271.288 20.3125ZM255.913 24L256.819 24.4217L256.823 24.4138L255.913 24ZM254.1 31.125L253.108 30.9992L254.1 31.125ZM255.6 73L254.682 73.3964L254.687 73.4092L254.693 73.4217L255.6 73ZM258.975 76.875L258.487 77.748L258.498 77.7539L258.975 76.875ZM270.788 76.875L271.208 77.7823L271.217 77.7781L271.226 77.7738L270.788 76.875ZM274.663 72.4375L275.587 72.8183L275.59 72.812L274.663 72.4375ZM275.663 63.1875V64.1875H297.038V63.1875V62.1875H275.663V63.1875ZM297.038 63.1875L296.038 63.1936C296.078 69.8938 294.771 75.548 292.165 80.1987L293.038 80.6875L293.91 81.1763C296.721 76.1604 298.08 70.1479 298.037 63.1814L297.038 63.1875ZM293.038 80.6875L292.164 80.2012C289.594 84.8188 285.97 88.3018 281.275 90.6696L281.725 91.5625L282.175 92.4554C287.23 89.9065 291.148 86.1395 293.911 81.1738L293.038 80.6875ZM281.725 91.5625L281.275 90.6696C276.564 93.0449 271.016 94.25 264.6 94.25V95.25V96.25C271.267 96.25 277.136 94.9968 282.175 92.4554L281.725 91.5625ZM264.6 95.25V94.25C259.424 94.25 254.88 93.3537 250.947 91.5877L250.538 92.5L250.128 93.4123C254.361 95.313 259.193 96.25 264.6 96.25V95.25ZM250.538 92.5L250.947 91.5877C247.009 89.8196 243.699 87.252 241.007 83.8764L240.225 84.5L239.443 85.1236C242.334 88.748 245.899 91.5137 250.128 93.4123L250.538 92.5ZM240.225 84.5L241.007 83.8764C238.309 80.4942 236.26 76.3882 234.874 71.5378L233.913 71.8125L232.951 72.0872C234.398 77.1535 236.558 81.5058 239.443 85.1236L240.225 84.5ZM233.913 71.8125L234.875 71.5399C233.488 66.6454 232.788 61.073 232.788 54.8125H231.788H230.788C230.788 61.2187 231.504 66.9796 232.95 72.0851L233.913 71.8125ZM231.788 54.8125H232.788V42.125H231.788H230.788V54.8125H231.788ZM231.788 42.125H232.788C232.788 35.9114 233.528 30.3648 234.995 25.4748L234.038 25.1875L233.08 24.9002C231.547 30.0102 230.788 35.7553 230.788 42.125H231.788ZM234.038 25.1875L234.993 25.4821C236.504 20.5819 238.618 16.4482 241.319 13.0611L240.538 12.4375L239.756 11.8139C236.874 15.4268 234.654 19.7931 233.082 24.8929L234.038 25.1875ZM240.538 12.4375L241.315 13.0667C244.053 9.68364 247.348 7.11412 251.204 5.34656L250.788 4.4375L250.371 3.52844C246.227 5.42755 242.688 8.19136 239.76 11.8083L240.538 12.4375ZM250.788 4.4375L251.201 5.34819C255.098 3.58027 259.455 2.6875 264.288 2.6875V1.6875V0.6875C259.203 0.6875 254.56 1.62806 250.374 3.52681L250.788 4.4375ZM264.288 1.6875V2.6875C271.123 2.6875 276.823 3.97684 281.432 6.50202L281.913 5.625L282.393 4.74798C277.419 2.02316 271.369 0.6875 264.288 0.6875V1.6875ZM281.913 5.625L281.441 6.50693C286.095 8.99455 289.661 12.5982 292.152 17.3401L293.038 16.875L293.923 16.4099C291.248 11.3185 287.396 7.42212 282.384 4.74307L281.913 5.625ZM293.038 16.875L292.154 17.3432C294.649 22.0525 295.999 27.7472 296.163 34.4619L297.163 34.4375L298.162 34.4131C297.993 27.4611 296.592 21.4475 293.921 16.4068L293.038 16.875ZM297.163 34.4375V33.4375H275.788V34.4375V35.4375H297.163V34.4375ZM275.788 34.4375L276.786 34.4901C276.997 30.4822 276.752 27.2404 275.991 24.8247L275.038 25.125L274.084 25.4253C274.74 27.5096 274.995 30.4761 274.789 34.3849L275.788 34.4375ZM275.038 25.125L275.993 24.8297C275.221 22.3336 273.82 20.485 271.743 19.4223L271.288 20.3125L270.832 21.2027C272.338 21.9734 273.437 23.333 274.082 25.4203L275.038 25.125ZM271.288 20.3125L271.768 19.4354C269.818 18.3677 267.3 17.875 264.288 17.875V18.875V19.875C267.108 19.875 269.257 20.3406 270.807 21.1896L271.288 20.3125ZM264.288 18.875V17.875C262.157 17.875 260.288 18.2968 258.726 19.1959L259.225 20.0625L259.724 20.9291C260.912 20.2448 262.418 19.875 264.288 19.875V18.875ZM259.225 20.0625L258.726 19.1959C257.126 20.1168 255.899 21.6141 255.002 23.5862L255.913 24L256.823 24.4138C257.593 22.7192 258.574 21.5915 259.724 20.9291L259.225 20.0625ZM255.913 24L255.006 23.5783C254.113 25.4984 253.49 27.9851 253.108 30.9992L254.1 31.125L255.092 31.2508C255.46 28.3483 256.046 26.085 256.819 24.4217L255.913 24ZM254.1 31.125L253.108 30.9992C252.726 34.013 252.538 37.6828 252.538 42H253.538H254.538C254.538 37.7338 254.724 34.1537 255.092 31.2508L254.1 31.125ZM253.538 42H252.538V54.8125H253.538H254.538V42H253.538ZM253.538 54.8125H252.538C252.538 59.2065 252.684 62.9084 252.98 65.9106L253.975 65.8125L254.97 65.7144C254.683 62.7999 254.538 59.1685 254.538 54.8125H253.538ZM253.975 65.8125L252.98 65.9106C253.277 68.9267 253.835 71.4341 254.682 73.3964L255.6 73L256.518 72.6036C255.782 70.8993 255.256 68.615 254.97 65.7144L253.975 65.8125ZM255.6 73L254.693 73.4217C255.596 75.3618 256.85 76.833 258.487 77.7479L258.975 76.875L259.463 76.0021C258.267 75.3336 257.271 74.2215 256.507 72.5783L255.6 73ZM258.975 76.875L258.498 77.7539C260.148 78.6495 262.202 79.0625 264.6 79.0625V78.0625V77.0625C262.415 77.0625 260.719 76.6838 259.452 75.9961L258.975 76.875ZM264.6 78.0625V79.0625C267.122 79.0625 269.336 78.6498 271.208 77.7823L270.788 76.875L270.367 75.9677C268.822 76.6836 266.911 77.0625 264.6 77.0625V78.0625ZM270.788 76.875L271.226 77.7738C273.198 76.8117 274.639 75.12 275.587 72.8182L274.663 72.4375L273.738 72.0568C272.936 74.005 271.793 75.2716 270.349 75.9762L270.788 76.875ZM274.663 72.4375L275.59 72.812C276.545 70.4461 276.872 67.1914 276.661 63.1355L275.663 63.1875L274.664 63.2395C274.869 67.1836 274.53 70.0956 273.735 72.063L274.663 72.4375ZM372.525 3H373.525V2H372.525V3ZM372.525 94V95H373.525V94H372.525ZM351.212 94H350.212V95H351.212V94ZM351.212 3V2H350.212V3H351.212ZM415.775 3L416.679 3.42822L417.355 2H415.775V3ZM389.712 58V59H390.345L390.616 58.4282L389.712 58ZM368.962 58L367.972 58.1344L368.089 59H368.962V58ZM366.275 38.1875V37.1875H365.13L365.284 38.3219L366.275 38.1875ZM378.65 38.1875V39.1875H379.379L379.602 38.4936L378.65 38.1875ZM389.962 3V2H389.234L389.01 2.69394L389.962 3ZM393.275 94L392.335 94.3422L392.575 95H393.275V94ZM378.775 54.1875L378.09 53.4589L377.61 53.9103L377.835 54.5297L378.775 54.1875ZM394.4 39.5L395.315 39.097L394.745 37.8029L393.715 38.7714L394.4 39.5ZM418.4 94V95H419.933L419.315 93.597L418.4 94ZM372.525 3H371.525V94H372.525H373.525V3H372.525ZM372.525 94V93H351.212V94V95H372.525V94ZM351.212 94H352.212V3H351.212H350.212V94H351.212ZM351.212 3V4H372.525V3V2H351.212V3ZM415.775 3L414.871 2.57178L388.809 57.5718L389.712 58L390.616 58.4282L416.679 3.42822L415.775 3ZM389.712 58V57H368.962V58V59H389.712V58ZM368.962 58L369.953 57.8656L367.266 38.0531L366.275 38.1875L365.284 38.3219L367.972 58.1344L368.962 58ZM366.275 38.1875V39.1875H378.65V38.1875V37.1875H366.275V38.1875ZM378.65 38.1875L379.602 38.4936L390.915 3.30606L389.962 3L389.01 2.69394L377.698 37.8814L378.65 38.1875ZM389.962 3V4H415.775V3V2H389.962V3ZM393.275 94L394.215 93.6578L379.715 53.8453L378.775 54.1875L377.835 54.5297L392.335 94.3422L393.275 94ZM378.775 54.1875L379.46 54.9161L395.085 40.2286L394.4 39.5L393.715 38.7714L378.09 53.4589L378.775 54.1875ZM394.4 39.5L393.485 39.903L417.485 94.403L418.4 94L419.315 93.597L395.315 39.097L394.4 39.5ZM418.4 94V93H393.275V94V95H418.4V94ZM502.888 22.125L503.861 22.3544L503.872 22.305L503.879 22.2546L502.888 22.125ZM485.95 94V95H486.742L486.923 94.2294L485.95 94ZM462.95 94L461.994 93.7053L461.595 95H462.95V94ZM491.013 3V2H490.274L490.057 2.70531L491.013 3ZM505.388 3L506.379 3.12962L506.527 2H505.388V3ZM516.138 94L515.164 94.2294L515.346 95H516.138V94ZM499.2 22.125L498.211 22.2705L498.217 22.3128L498.227 22.3544L499.2 22.125ZM496.388 3V2H495.23L495.398 3.14549L496.388 3ZM511.013 3L511.968 2.70472L511.75 2H511.013V3ZM539.138 94V95H540.493L540.093 93.7047L539.138 94ZM516.825 60.0625H517.825V59.0625H516.825V60.0625ZM516.825 77V78H517.825V77H516.825ZM477.388 77H476.388V78H477.388V77ZM477.388 60.0625V59.0625H476.388V60.0625H477.388ZM502.888 22.125L501.914 21.8956L484.977 93.7706L485.95 94L486.923 94.2294L503.861 22.3544L502.888 22.125ZM485.95 94V93H462.95V94V95H485.95V94ZM462.95 94L463.906 94.2947L491.968 3.29469L491.013 3L490.057 2.70531L461.994 93.7053L462.95 94ZM491.013 3V4H505.388V3V2H491.013V3ZM505.388 3L504.396 2.87038L501.896 21.9954L502.888 22.125L503.879 22.2546L506.379 3.12962L505.388 3ZM516.138 94L517.111 93.7706L500.173 21.8956L499.2 22.125L498.227 22.3544L515.164 94.2294L516.138 94ZM499.2 22.125L500.189 21.9795L497.377 2.85451L496.388 3L495.398 3.14549L498.211 22.2705L499.2 22.125ZM496.388 3V4H511.013V3V2H496.388V3ZM511.013 3L510.057 3.29528L538.182 94.2953L539.138 94L540.093 93.7047L511.968 2.70472L511.013 3ZM539.138 94V93H516.138V94V95H539.138V94ZM516.825 60.0625H515.825V77H516.825H517.825V60.0625H516.825ZM516.825 77V76H477.388V77V78H516.825V77ZM477.388 77H478.388V60.0625H477.388H476.388V77H477.388ZM477.388 60.0625V61.0625H516.825V60.0625V59.0625H477.388V60.0625Z" fill="#9C9C9C" mask="url(#path-1-outside-1_309_6)"/>
</svg>
